<svg xmlns="http://www.w3.org/2000/svg" xmlns:xlink="http://www.w3.org/1999/xlink" version="1.1" id="Layer_1" x="0px" y="0px" enable-background="new 0 0 1024 1024" xml:space="preserve" viewBox="159.02 285.65 691.25 462.6">

<path fill="#0D2E6A" opacity="1.000000" stroke="none" d=" M297.339508,494.991302   C297.339508,494.991302 297.019745,494.629028 296.956207,494.032959   C292.274841,488.305634 285.812469,487.694458 279.631805,486.392914   C279.631805,486.392914 279.874786,486.153595 279.753662,485.972321   C279.091827,485.526062 278.551086,485.261047 278.010345,484.996063   C278.010345,484.996063 278.000000,485.001221 277.967285,484.651306   C276.929596,483.542542 275.924652,482.783691 274.919739,482.024841   C274.647095,481.848663 274.374420,481.672455 274.017883,480.929138   C273.477661,480.024689 273.021332,479.687347 272.565002,479.350006   C272.565002,479.350006 272.692810,479.273834 272.654907,479.043060   C272.273621,478.674713 271.930206,478.537140 271.586823,478.399567   C271.586823,478.399567 271.767792,478.289825 271.687012,478.045349   C271.038239,477.556061 270.470245,477.311188 269.902252,477.066315   C269.902252,477.066315 269.975739,477.006256 269.978455,476.588318   C269.680695,471.928558 268.712158,467.598938 269.255127,463.467987   C269.881927,458.699524 267.959534,456.447113 263.989990,455.004028   C263.989990,455.004028 264.001221,455.000702 263.978760,454.700623   C263.606781,453.942291 263.257233,453.484100 262.907684,453.025879   C262.567963,452.977844 262.310272,452.806488 262.033752,451.935150   C258.459045,448.248444 255.285767,444.670959 251.413132,442.181183   C248.491867,440.303070 246.904007,437.908936 248.451187,435.457916   C249.429443,433.908234 253.639771,432.673706 255.203400,433.517090   C261.979797,437.171936 265.217896,430.785095 270.040955,429.095490   C270.040955,429.095490 270.026764,429.018829 270.431030,429.014893   C271.977631,428.427155 273.201752,427.961517 274.247742,427.238312   C278.060120,424.602325 282.177368,423.338013 286.817535,424.143463   C294.794586,425.528168 300.743774,420.349182 301.329773,411.502228   C301.329773,411.502228 301.471863,411.429169 301.905609,411.551025   C303.161774,410.404388 304.978882,408.704834 304.646088,407.936981   C302.384369,402.718262 305.799194,399.903625 309.138641,397.661194   C314.227142,394.244263 316.488434,389.863373 315.960510,383.880951   C316.151550,383.620880 316.342621,383.360840 317.117676,383.006409   C318.083923,382.419800 318.466187,381.927582 318.848450,381.435333   C318.848450,381.435333 318.795044,381.146271 319.185608,380.830231   C320.254242,378.216339 320.932281,375.918457 321.610321,373.620605   C321.610321,373.620605 321.922638,373.796661 322.058807,373.710938   C322.331940,373.277283 322.468933,372.929352 322.605927,372.581421   C322.605927,372.581421 322.678528,372.732208 322.936401,372.673157   C323.447906,372.051422 323.701569,371.488739 323.955200,370.926025   C323.955200,370.926025 324.001801,370.983582 324.339905,370.947510   C325.757477,369.792664 327.776001,368.649658 327.747833,367.559570   C327.646088,363.619354 329.483643,361.465698 332.805359,359.944946   C333.583191,359.588837 334.222260,358.554810 334.565979,357.689911   C336.108398,353.809052 337.521240,349.876678 338.980835,345.962860   C338.980835,345.962860 338.992432,346.005676 339.295746,345.968689   C339.993042,345.505341 340.387024,345.078979 340.781006,344.652588   C340.781006,344.652618 340.824921,344.808655 341.036011,344.733215   C341.396423,344.317108 341.545776,343.976440 341.695129,343.635773   C341.695129,343.635773 341.755188,343.826019 342.045593,343.654602   C342.695648,338.448120 343.537659,333.600220 347.539215,329.961884   C347.603210,329.903717 347.494965,329.656128 347.467102,329.496918   C347.574707,329.641266 347.682343,329.785614 348.000366,329.768738   C349.563812,328.240112 350.923798,326.879425 352.268707,325.503998   C355.460449,322.239807 357.628448,317.672516 362.951721,317.127136   C363.112396,317.079987 363.273041,317.032806 364.060577,316.949646   C367.153625,316.451416 369.707886,316.242371 372.051239,315.427124   C373.349060,314.975616 374.294098,313.509979 375.398163,312.501465   C375.398163,312.501465 375.513458,312.475952 375.892120,312.581970   C377.533875,312.052887 379.051453,311.678650 380.016174,310.737640   C384.277344,306.581421 386.837952,300.308228 393.966736,299.811493   C396.820465,291.946991 401.808197,293.943756 407.022247,296.986237   C407.022247,296.986237 407.000458,297.001221 407.037109,297.348511   C408.739258,298.789276 410.404724,299.882782 412.070190,300.976318   C412.070190,300.976318 412.551514,300.967133 412.995117,301.253876   C414.752808,301.169434 416.066895,300.798248 417.998810,300.252533   C417.998810,302.444183 417.998779,304.224060 417.998840,306.003967   C417.999207,325.333099 418.000000,344.662262 417.999939,363.991394   C417.999786,403.316193 418.017365,442.641052 417.941925,481.965698   C417.938385,483.816376 417.684387,486.734955 416.564514,487.341095   C409.465057,491.184143 401.932343,494.229706 394.851135,498.102631   C388.742798,501.443481 383.044525,505.534149 377.164978,509.293304   C377.164978,509.293304 377.139221,509.153931 376.938416,509.199677   C376.489838,509.492310 376.242035,509.739166 375.994263,509.986084   C375.994293,509.986084 375.998779,510.001221 375.605957,509.995789   C372.149078,512.006409 369.085052,514.022461 366.021027,516.038513   C366.021027,516.038513 366.007965,515.994385 365.630798,515.999756   C363.115509,516.727051 360.623108,516.976501 358.908203,518.262756   C354.434479,521.618042 350.301270,525.427429 346.032227,529.055664   C346.032227,529.055664 346.011780,528.995178 345.631470,529.002441   C343.472229,529.580200 341.693359,530.150696 339.914490,530.721191   C339.914490,530.721191 339.829681,530.956116 339.422913,531.022095   C338.727814,531.581909 338.439514,532.075745 338.151184,532.569580   C337.664917,533.332092 337.178650,534.094666 336.075684,534.967285   C333.261200,536.683655 331.063354,538.289856 328.886780,539.880615   C327.092316,537.789978 325.493103,535.926941 323.893921,534.063843   C323.893890,534.063843 323.972290,534.016052 323.933899,533.676819   C322.817413,532.583252 321.435791,530.959167 320.709290,531.212646   C315.043182,533.189514 310.393402,531.158264 305.898163,528.066223   C305.898163,528.066223 305.971283,528.026123 305.790894,527.767273   C300.287933,525.490601 298.920441,521.585388 300.371185,516.395630   C300.858521,514.652344 301.549744,512.924988 298.513306,513.543823   C298.686005,513.405701 298.858673,513.267639 298.814209,512.953247   C294.266754,510.011261 294.803802,506.067719 295.981659,501.969086   C295.981659,501.969086 295.997681,502.002838 296.312347,501.957092   C297.069458,501.249023 297.511871,500.586700 297.954285,499.924377   C297.954315,499.924377 297.996216,499.981293 298.243835,499.772888   C298.107452,498.040100 297.723480,496.515717 297.339508,494.991302  z" data-index="0"/>
<path fill="#212936" opacity="1.000000" stroke="none" d=" M687.078552,451.372498   C684.682983,451.920471 682.287415,452.468445 679.231873,452.775177   C674.206299,452.932312 669.710571,452.807098 665.505859,453.852631   C659.303284,455.394958 652.316284,453.513733 646.418579,458.053223   C629.276611,462.995636 612.540283,467.958710 595.803894,472.921814   C567.699158,482.308228 543.083374,497.274231 522.771423,518.972168   C500.439758,542.827515 491.451965,571.006653 495.918304,603.424805   C496.121582,604.900330 496.280029,606.382080 496.440582,607.863037   C496.455750,608.002808 496.335938,608.157104 496.169708,608.586426   C472.022888,608.586426 447.764923,608.586426 423.060760,608.586426   C423.833893,605.408325 424.593140,602.287415 425.588409,598.196167   C420.907715,598.196167 416.765350,598.032349 412.651245,598.300964   C411.492401,598.376648 409.977325,599.475708 409.389191,600.530945   C407.942993,603.125793 406.940704,605.968079 405.742981,608.750061   C380.813232,608.750061 356.017059,608.750061 330.238312,608.750061   C331.547760,606.561584 332.522461,604.769714 333.647034,603.077393   C352.247223,575.086853 376.243469,552.489685 403.594666,533.273987   C446.531586,503.108521 493.993958,482.845886 544.402039,469.047668   C549.028687,467.781250 553.636047,466.444458 559.018982,465.032471   C574.126892,461.921356 588.468140,458.918121 603.232422,455.950165   C606.113037,455.296082 608.570801,454.606750 611.448975,453.916595   C616.088135,453.240906 620.319641,452.636566 624.522583,451.875092   C631.369141,450.634583 638.197021,449.291351 645.422302,447.993591   C647.212769,447.110077 648.613708,446.224487 650.014709,445.338898   C650.452515,445.255554 650.890259,445.172180 651.720459,445.460144   C652.785034,446.271393 653.457092,446.711304 654.394287,447.410767   C661.377319,447.038879 668.100220,446.452850 674.807068,445.718842   C675.651428,445.626404 676.410645,444.754913 677.209290,444.244415   C679.276978,444.156128 681.344666,444.067871 684.301208,444.040131   C689.102173,444.411743 693.014221,444.722839 696.931152,445.198730   C696.935974,445.363525 696.937805,445.693298 696.514648,445.778870   C693.915344,446.081055 691.739136,446.297729 689.562988,446.514374   C689.609802,446.999298 689.656616,447.484192 689.703430,447.969116   C691.464050,447.969116 693.224731,447.969116 694.984497,448.336487   C694.987854,449.438599 694.992065,450.173340 694.996216,450.908081   C694.565063,450.980988 694.133972,451.053864 693.160522,450.830109   C690.778748,450.860077 688.298157,446.953583 687.078552,451.372498  M432.093475,559.600586   C429.944672,562.615173 427.795898,565.629822 425.274353,569.167419   C429.794281,569.431458 433.397217,569.777466 436.999298,569.768738   C438.061340,569.766174 439.550537,569.039795 440.115082,568.171326   C445.569946,559.779724 450.869293,551.287048 456.185608,542.866638   C450.509949,540.954529 445.749146,541.920532 442.008301,547.522034   C439.261444,551.635132 435.721893,555.218872 432.093475,559.600586  M491.846527,511.307465   C495.197876,509.067902 498.549255,506.828369 502.987122,503.862762   C499.541901,503.695618 496.896271,502.721283 495.413696,503.634705   C486.764526,508.963196 478.388062,514.734253 469.453430,520.665283   C474.728729,522.581055 478.506989,522.128662 482.081421,518.612061   C484.782654,515.954590 488.184662,514.009399 491.846527,511.307465  M550.478394,477.182953   C541.418457,480.841888 532.358582,484.500854 523.298645,488.159821   C523.502319,488.714050 523.705994,489.268311 523.909668,489.822571   C535.053223,489.438751 543.324341,480.586090 553.949341,478.261017   C553.044617,477.913269 552.139893,477.565491 550.478394,477.182953  M585.887390,468.078888   C593.317688,465.919403 600.748047,463.759918 608.178345,461.600433   C608.063843,461.137268 607.949280,460.674072 607.834778,460.210907   C598.699219,462.496521 589.563660,464.782166 580.428162,467.067810   C580.465942,467.468475 580.503784,467.869171 580.541626,468.269836   C582.072754,468.269836 583.603943,468.269836 585.887390,468.078888  z" data-index="1" style="opacity: 1; visibility: visible;"/>
<path fill="#CC222D" opacity="1.000000" stroke="none" d=" M566.901917,505.928467   C588.461365,488.432678 613.534241,478.114624 639.822815,469.788300   C643.071228,474.943787 645.977478,479.880341 649.242310,484.567169   C650.433716,486.277405 652.272278,487.871826 654.172607,488.689056   C659.395935,490.935303 664.808411,492.741821 670.693359,494.925446   C671.237183,491.179993 671.584167,488.790161 671.983154,486.042358   C673.036194,486.244141 674.072876,486.121796 674.490906,486.572845   C678.390259,490.780365 681.809509,489.346375 685.969604,486.558868   C689.488464,484.200989 693.796082,482.935089 697.867249,481.506775   C703.918701,479.383636 715.583069,484.153564 717.434814,490.131592   C718.642578,494.030579 718.363098,498.539246 718.051208,502.722687   C717.651917,508.079285 716.658630,513.403809 715.666504,518.694397   C715.447937,519.859558 714.325134,521.533630 713.336426,521.764526   C707.433716,523.143066 701.448181,524.167480 695.265076,525.354004   C697.614868,519.846558 691.829163,518.215637 689.246033,515.015808   C688.463562,514.046509 685.191467,515.086914 683.059753,515.206787   C683.405212,516.974731 683.466309,518.872986 684.195984,520.464783   C684.683167,521.527649 686.122009,522.154297 687.409851,523.199158   C684.589905,524.775940 682.396057,526.002625 679.460571,527.644043   C681.602295,528.680542 682.842468,529.280762 684.615112,530.138672   C681.450378,535.950256 678.425598,541.504822 675.400818,547.059387   C675.760315,547.286438 676.119812,547.513550 676.479309,547.740601   C680.831421,541.881958 685.183594,536.023376 689.535706,530.164795   C690.281311,530.573181 691.026978,530.981628 691.772583,531.390015   C690.995056,533.426147 690.533508,535.664062 689.384827,537.463196   C684.640686,544.893372 679.805176,552.271790 674.774170,559.510010   C671.048096,564.870789 670.708191,570.830872 670.206055,577.054871   C669.612061,584.417480 667.945068,591.705994 666.456360,598.967834   C666.270508,599.874329 664.234192,601.154541 663.226685,601.015930   C657.175781,600.183472 650.927673,599.675110 645.256226,597.637207   C642.180298,596.532043 640.114929,592.614075 636.995422,589.336304   C631.727234,592.166443 626.312256,590.117065 621.000977,586.116699   C619.498047,584.984680 616.903381,585.088440 614.796265,585.017578   C610.638916,584.877625 606.460876,585.198486 602.315430,584.941406   C600.638794,584.837341 598.335510,584.193848 597.499390,582.980957   C593.392944,577.024170 590.672241,576.091553 583.963074,578.218567   C579.717834,579.564514 575.242798,580.185486 570.212219,580.766479   C569.035767,578.594604 568.076355,576.790161 568.067444,574.981018   C567.962769,553.842468 568.028809,532.703064 567.953796,511.564301   C567.947144,509.684479 567.268494,507.807007 566.901917,505.928467  z" data-index="2" style="opacity: 1;"/>
<path fill="#CB222B" opacity="1.000000" stroke="none" d=" M565.868408,286.959534   C571.206055,284.288818 575.629333,285.973328 580.007751,289.464355   C587.881165,295.742035 591.700317,304.671753 595.848389,313.311188   C598.052002,317.900879 599.160522,323.016663 600.756775,327.897095   C600.859863,328.212097 600.817200,328.767487 600.992737,328.838287   C607.910645,331.629425 607.536377,339.995056 612.695312,344.145477   C613.682373,344.939575 614.658386,346.095673 615.003845,347.271545   C615.914856,350.371948 616.466736,353.488953 620.852051,353.247040   C621.475098,353.212677 622.786011,354.597504 622.744629,355.260956   C622.294495,362.472473 628.864746,364.537598 632.371033,368.847565   C633.707153,370.489990 634.557739,372.602417 635.327087,374.616211   C637.315918,379.821686 639.786682,384.961182 640.869995,390.366516   C642.459961,398.299805 645.508179,406.119324 642.274658,414.643555   C640.015259,420.599823 639.098450,427.120331 638.081299,433.468842   C637.595886,436.498230 636.686523,437.506927 633.523254,437.837891   C612.175354,440.071320 590.857361,442.590942 568.811401,444.996582   C567.731934,445.109009 567.370789,445.242798 567.009644,445.376587   C566.784790,445.376862 566.559937,445.377136 566.051636,444.808533   C565.636963,439.250214 565.505737,434.260864 565.482788,428.800018   C565.509583,423.816040 565.428101,419.303497 565.477295,414.538879   C565.521179,413.929749 565.434326,413.572723 565.465698,412.777740   C565.507141,411.142944 565.430420,409.946075 565.496582,408.417145   C565.545471,407.142639 565.451599,406.200256 565.473633,404.787781   C565.512634,388.794464 565.435669,373.271210 565.501343,357.392212   C565.551697,355.776154 565.459534,354.515900 565.480225,352.785004   C565.527893,345.129089 565.462585,337.943817 565.536011,330.331604   C565.645691,316.334747 565.616699,302.764801 565.686279,288.830048   C565.812622,287.963318 565.840515,287.461426 565.868408,286.959534  z" data-index="3" style="opacity: 1;"/>
<path fill="#282F3C" opacity="1.000000" stroke="none" d=" M649.579712,445.271545   C648.613708,446.224487 647.212769,447.110077 644.980042,447.978760   C636.614014,448.960480 629.053772,449.800446 621.556763,451.026886   C617.985291,451.611145 614.534180,452.930847 611.028503,453.917389   C608.570801,454.606750 606.113037,455.296082 603.299866,455.585205   C602.465637,454.919037 601.924133,454.347748 601.517212,454.431366   C587.288940,457.355896 573.073364,460.342072 558.855957,463.319519   C486.303375,480.133820 419.168182,508.379211 361.851135,557.129211   C345.027496,571.438293 330.354584,587.783142 317.647064,605.890381   C316.629028,607.341064 314.365936,608.605713 312.602386,608.718384   C306.982727,609.077332 301.325745,608.851379 294.711426,608.851379   C296.475311,606.337952 297.811584,604.330017 299.250702,602.398682   C321.343018,572.750427 348.978943,549.184204 379.851257,529.224304   C429.321472,497.240265 483.588257,476.857025 540.591248,463.218536   C576.345093,454.664062 612.578430,448.908630 649.579712,445.271545  z" data-index="4" style="opacity: 1;"/>
<path fill="#F7CE30" opacity="1.000000" stroke="none" d=" M565.988525,581.838867   C554.985779,583.775024 545.887634,589.285645 537.786865,596.739075   C536.851440,597.599792 535.489685,597.997070 534.337097,598.603149   C520.076294,575.788757 536.391663,527.243408 565.312744,507.612000   C565.808105,532.605957 565.898315,557.222412 565.988525,581.838867  z" data-index="5" style="opacity: 1;"/>
<path fill="#282F3C" opacity="1.000000" stroke="none" d=" M646.824219,458.073914   C652.316284,453.513733 659.303284,455.394958 665.505859,453.852631   C669.710571,452.807098 674.206299,452.932312 678.812378,452.830444   C671.247986,455.120270 663.459900,457.182343 655.635193,459.094666   C627.268494,466.027222 599.628296,474.870605 574.502258,490.208191   C561.654297,498.050995 549.824707,507.188141 540.022034,518.737366   C519.293152,543.159424 513.980591,570.819336 522.690430,601.415771   C523.369263,603.800293 524.045105,606.185608 524.787048,608.798462   C521.561279,608.798462 518.581116,608.815613 515.601196,608.795044   C508.338562,608.744995 508.386230,608.729248 507.051636,601.464172   C499.104218,558.200806 516.222717,525.488831 550.120728,500.124512   C564.577026,489.307556 580.102905,480.173920 597.969727,473.943787   C612.683960,469.319366 626.664062,464.828125 640.634827,460.307831   C642.720520,459.633026 644.762207,458.821960 646.824219,458.073914  z" data-index="6" style="opacity: 1; visibility: visible;"/>
<path fill="#143162" opacity="1.000000" stroke="none" d=" M355.682007,746.405273   C346.013000,743.133301 345.983948,743.055786 350.839661,733.735657   C358.011627,736.900635 365.683899,740.195435 372.861145,735.006531   C375.429321,733.149780 375.805878,728.261597 376.466278,724.232056   C371.221161,728.570374 365.581909,730.601318 359.527191,728.799133   C355.754150,727.676086 351.757568,725.463623 349.163605,722.571899   C341.983521,714.567627 342.946655,699.323181 350.446472,691.836731   C356.971222,685.323608 367.061249,685.383301 376.056427,692.191223   C376.410706,690.553467 376.736694,689.046204 377.062439,687.540161   C380.737640,687.540161 384.189240,687.540161 387.771057,687.540161   C387.771057,702.539429 388.624695,717.365479 387.493011,732.038391   C386.632996,743.189209 375.112946,749.431946 361.927521,747.730591   C359.953461,747.475891 358.014740,746.947388 355.682007,746.405273  M372.244995,717.826904   C378.495361,711.958618 377.731018,700.827332 370.885742,698.031067   C366.516174,696.246155 361.298370,697.525635 358.744720,701.008179   C355.966766,704.796631 356.095062,712.213013 359.004578,716.032043   C361.742004,719.625122 365.909485,720.336792 372.244995,717.826904  z" data-index="7" style="opacity: 1;"/>
<path fill="#143162" opacity="1.000000" stroke="none" d=" M192.560089,675.127319   C208.013733,679.844055 209.663345,704.553345 195.386215,712.642578   C198.982193,718.604492 202.575989,724.562805 206.676071,731.360535   C202.115829,731.360535 198.234451,731.486511 194.373245,731.263184   C193.513992,731.213379 192.544205,730.060608 191.941360,729.195496   C190.518478,727.153564 188.845718,725.130432 188.055023,722.831116   C185.137909,714.348083 178.922470,713.745422 171.214722,715.514404   C171.214722,720.529663 171.214722,725.639099 171.214722,731.073181   C166.982254,731.073181 163.099777,731.073181 159.023178,731.073181   C159.023178,712.200745 159.023178,693.430786 159.023178,673.530151   C170.128067,674.027222 181.150391,674.520630 192.560089,675.127319  M171.047684,695.466248   C171.047684,698.204651 171.047684,700.943115 171.047684,703.649719   C176.470612,703.649719 181.137772,704.021301 185.717834,703.548767   C190.623672,703.042542 193.066376,699.257874 192.820587,693.812195   C192.598068,688.881592 189.932877,685.359131 185.651886,685.103088   C180.921844,684.820190 176.161835,685.038452 171.049561,685.038452   C171.049561,688.577393 171.049561,691.536072 171.047684,695.466248  z" data-index="8" style="opacity: 1;"/>
<path fill="#143162" opacity="1.000000" stroke="none" d=" M450.665924,708.507080   C448.358765,701.547424 446.185516,694.961182 443.892975,688.013428   C448.005371,688.013428 451.744354,688.013428 455.861176,688.013428   C458.623871,697.221497 461.433594,706.586182 464.636627,717.261780   C468.023193,706.741638 471.037323,697.378479 474.005402,688.158447   C474.507111,687.928711 474.789581,687.690063 475.077271,687.683594   C484.314392,687.475098 484.314362,687.478455 487.087738,696.257385   C489.165375,702.833923 491.243286,709.410278 493.752686,717.352844   C496.872223,706.688049 499.604797,697.346008 502.376404,687.870605   C506.165070,687.870605 509.787964,687.870605 514.030457,687.870605   C509.266937,702.491882 504.567566,716.916138 499.856506,731.376221   C495.868927,731.376221 492.235840,731.376221 488.300079,731.376221   C485.391510,722.475464 482.483490,713.576477 479.106293,703.241638   C476.178467,712.294067 473.620087,719.930847 471.267120,727.630432   C470.463989,730.258545 469.677307,732.351746 466.290436,731.605408   C462.981476,730.876160 458.549194,733.590759 456.979919,727.836121   C455.233429,721.432129 452.885773,715.192017 450.665924,708.507080  z" data-index="9" style="opacity: 1;"/>
<path fill="#E8CC5D" opacity="1.000000" stroke="none" d=" M565.397278,330.758545   C565.462585,337.943817 565.527893,345.129089 565.360352,353.041046   C565.204529,355.094482 565.281616,356.421234 565.358765,357.747986   C565.435669,373.271210 565.512634,388.794464 565.362549,405.015747   C565.208252,406.725616 565.281006,407.737427 565.353760,408.749237   C565.430420,409.946075 565.507141,411.142944 565.383118,412.922729   C565.237122,413.934113 565.291870,414.362549 565.346558,414.790985   C565.428101,419.303497 565.509583,423.816040 565.343384,429.145020   C565.117920,435.097504 565.140076,440.233521 565.162170,445.369568   C561.096252,446.484894 557.062378,447.738129 552.958984,448.692261   C532.301880,453.495605 511.345734,457.265625 491.035614,463.238251   C470.092834,469.396912 449.777863,477.687408 429.173157,485.002777   C426.844788,485.829437 424.419006,486.381561 421.608704,486.617981   C421.145721,435.039703 421.133728,383.904449 421.062531,332.769318   C421.046783,321.453522 420.821655,310.138031 420.692932,298.822388   C424.804626,297.876862 428.033051,299.145294 431.825317,301.247253   C437.990631,304.664520 446.112793,302.407318 452.325043,306.916473   C452.891693,307.327789 454.530243,306.451508 455.581909,305.975983   C465.182922,301.634491 468.512299,305.436218 476.007141,312.064514   C476.732971,312.706421 477.100128,313.735809 477.749786,314.484711   C483.722168,321.369598 488.560944,325.486694 496.427490,315.213837   C501.707672,308.318481 509.036957,308.228790 516.460327,307.327728   C525.828796,306.190582 535.176147,304.770569 544.445679,303.013885   C546.406250,302.642303 549.158813,300.550140 549.551331,298.802582   C551.473755,290.245056 558.503174,289.022858 565.485962,286.974670   C565.840515,287.461426 565.812622,287.963318 565.484619,289.159515   C565.255493,303.488739 565.326355,317.123627 565.397278,330.758545  M423.948853,317.650757   C423.948853,372.975525 423.948853,428.300293 423.948853,484.322021   C429.523132,481.761444 434.717072,478.823181 440.267120,476.927307   C458.608002,470.662170 476.968384,464.407654 495.536255,458.869904   C507.725128,455.234711 520.253174,452.699799 532.689514,449.943634   C541.564453,447.976807 550.569519,446.595642 559.438721,444.606323   C560.849915,444.289795 562.777222,442.219482 562.888916,440.833008   C563.527527,432.901428 563.898621,424.933319 563.969543,416.974121   C564.115784,400.554443 564.013916,384.132538 564.017090,367.711548   C564.021729,343.721069 564.028809,319.730560 564.034729,295.740082   C564.035217,294.003998 564.034912,292.267914 564.034912,290.035828   C558.990173,291.822357 554.475952,291.950348 552.962646,297.980865   C552.216553,300.954498 548.519287,304.646820 545.537292,305.337952   C534.801941,307.826050 523.853943,309.875092 512.882874,310.680634   C506.722809,311.132935 502.070465,312.565155 498.148499,317.251343   C488.192810,329.146881 482.429291,323.906189 475.373901,315.564453   C474.949127,315.062225 474.715851,314.400696 474.304474,313.884155   C469.388153,307.711304 463.471130,305.701599 456.343994,308.429779   C452.238434,310.001343 448.781067,310.252960 445.260681,307.232605   C444.245789,306.361877 442.464478,305.962646 441.069336,306.033447   C436.267365,306.277191 432.033051,305.655884 428.136597,302.218262   C425.315308,299.729218 423.049500,301.028595 423.057861,304.813538   C423.066620,308.773834 423.628876,312.732910 423.948853,317.650757  z" data-index="10"/>
<path fill="#C73135" opacity="1.000000" stroke="none" d=" M634.146729,703.000000   C634.144226,693.207886 634.144226,683.915771 634.144226,674.770996   C645.610168,674.770996 656.772766,673.698303 667.618774,675.090942   C677.291748,676.332947 682.338013,685.468018 681.732605,696.235107   C681.137085,706.824097 675.398987,713.700134 665.291748,715.094421   C659.430847,715.902954 653.451782,715.854797 647.138367,716.214172   C647.138367,721.208374 647.138367,725.983276 647.138367,731.149292   C642.722290,731.149292 638.709778,731.149292 634.149170,731.149292   C634.149170,721.733704 634.149170,712.616821 634.146729,703.000000  M656.393799,685.078064   C653.318115,685.078064 650.242493,685.078064 647.250977,685.078064   C647.250977,691.965393 647.250977,698.178101 647.250977,704.745239   C652.198853,704.745239 656.815002,704.981689 661.395142,704.677002   C665.758484,704.386780 668.216431,701.573425 668.895020,697.332092   C670.210266,689.111389 666.375610,685.088013 656.393799,685.078064  z" data-index="11" style="opacity: 1;"/>
<path fill="#143466" opacity="1.000000" stroke="none" d=" M302.070007,710.013306   C301.015747,709.457031 299.970703,708.440308 298.905731,708.418884   C291.764801,708.275696 284.619598,708.344421 277.005127,708.344421   C277.005127,715.910339 277.005127,723.319885 277.005127,731.135254   C272.695587,731.135254 268.846161,731.135254 264.641663,731.135254   C264.641663,712.247192 264.641663,693.393555 264.641663,674.288452   C268.623779,674.288452 272.374237,674.288452 276.696960,674.288452   C276.696960,681.775452 276.696960,689.175171 276.696960,696.834595   C285.329529,696.834595 293.394501,696.834595 301.815704,696.834595   C301.815704,690.072632 301.815704,683.447937 301.919525,676.901367   C302.023346,682.905273 302.023346,688.831116 302.023346,694.756897   C302.470154,694.750488 302.916931,694.744080 303.363739,694.737671   C303.363739,689.631409 303.197601,684.517517 303.429016,679.421814   C303.557953,676.582886 305.696777,675.149292 308.263672,676.155884   C309.789673,676.754211 311.770447,678.706238 311.834839,680.127258   C312.434204,693.355225 312.723602,706.598938 312.941071,719.840820   C312.981110,722.279480 312.701416,724.899231 311.785034,727.110352   C311.252197,728.396057 309.220551,729.622620 307.748108,729.776978   C306.595764,729.897827 304.616211,728.591492 304.157196,727.454041   C303.321045,725.381897 303.263336,722.972778 303.020355,720.689453   C302.642334,717.137207 302.380890,713.572632 302.070007,710.013306  z" data-index="12" style="opacity: 1;"/>
<path fill="#143466" opacity="1.000000" stroke="none" d=" M409.860596,672.183228   C410.155304,678.954041 410.155304,685.417175 410.155304,692.268677   C413.663513,690.432739 416.375916,688.436157 419.413757,687.527344   C430.272827,684.278687 439.194427,690.739624 439.614685,702.285034   C439.959503,711.758362 439.684937,721.254272 439.684937,731.042725   C435.764954,731.042725 431.997559,731.042725 427.439270,731.042725   C427.439270,723.361877 427.473724,715.597412 427.429321,707.833313   C427.387268,700.477234 425.518494,698.058899 419.947968,697.945862   C413.906952,697.823242 410.369934,701.403442 410.265167,708.080444   C410.145538,715.703186 410.237488,723.329346 410.237488,731.091309   C406.129028,731.091309 402.380493,731.091309 398.399109,731.091309   C398.399109,711.383911 398.399109,691.945251 398.399109,671.875488   C402.077637,671.875488 405.821747,671.875488 409.860596,672.183228  z" data-index="13" style="opacity: 1;"/>
<path fill="#143162" opacity="1.000000" stroke="none" d=" M603.608521,698.708008   C599.335327,709.937866 595.258850,720.826721 591.107361,731.686951   C590.101807,734.317505 589.033142,736.955078 587.677429,739.415222   C582.606567,748.617065 573.231323,750.880127 563.529053,745.024170   C564.471252,742.202637 565.446899,739.280762 566.495422,736.140686   C567.944031,736.587463 569.041443,737.248413 570.093689,737.182983   C572.240906,737.049438 575.318115,737.243896 576.265259,735.986877   C577.572021,734.252686 578.242126,730.932068 577.486755,728.932495   C572.971619,716.979980 567.958496,705.215881 563.140869,693.377014   C562.475098,691.741028 561.967224,690.040649 561.162354,687.726318   C564.939941,687.726318 568.253357,687.456055 571.479004,687.869995   C572.639221,688.018860 574.071167,689.628296 574.555847,690.887939   C577.954224,699.720032 581.137146,708.634949 584.646179,718.226501   C587.721130,709.869812 591.040955,702.151611 593.338135,694.140198   C594.837708,688.910706 597.242615,686.643005 602.608276,687.624695   C604.029541,687.884705 605.515320,687.791931 607.612122,687.891663   C606.231873,691.658630 605.004761,695.007568 603.608521,698.708008  z" data-index="14" style="opacity: 1;"/>
<path fill="#C73135" opacity="1.000000" stroke="none" d=" M840.910034,719.315796   C842.391174,719.466553 844.007202,719.437622 844.614624,720.205994   C845.813599,721.722961 846.454163,723.681396 847.294556,725.393799   C840.414185,733.265015 826.042847,734.554810 816.578064,728.270325   C807.634827,722.332153 804.549500,708.926270 809.682373,698.307800   C814.325256,688.702942 825.650635,684.213562 836.440491,687.700928   C846.350769,690.904053 851.963562,701.388916 849.820740,713.580505   C840.129822,713.580505 830.300781,713.580505 820.299316,713.580505   C822.107117,719.619385 825.122986,722.204285 830.477051,721.808289   C833.886047,721.556152 837.220825,720.301636 840.910034,719.315796  M825.820190,697.084656   C822.036560,698.444763 820.283508,701.307556 819.367737,705.450684   C825.971741,705.450684 832.088562,705.450684 838.266846,705.450684   C837.052063,697.940674 833.807373,695.674072 825.820190,697.084656  z" data-index="15" style="opacity: 1;"/>
<path fill="#143162" opacity="1.000000" stroke="none" d=" M525.219360,731.021606   C518.240295,726.928406 515.657776,721.364380 517.308533,714.660828   C518.819031,708.526855 522.991577,705.162476 530.595398,704.778076   C535.205994,704.545105 539.858337,705.138184 544.544983,705.362671   C546.018921,697.062805 539.145996,695.198486 522.471252,699.974792   C521.584290,697.187744 520.693604,694.389038 519.828369,691.670166   C527.063171,685.788330 544.374390,684.762878 550.888611,690.654053   C553.908875,693.385498 556.356018,698.112976 556.719116,702.146545   C557.564697,711.538696 556.988770,721.058899 556.988770,730.843384   C553.413574,730.843384 550.000671,730.843384 546.177368,730.843384   C545.989014,729.859741 545.759766,728.662964 545.431152,726.947327   C539.552979,732.406921 532.894836,733.546753 525.219360,731.021606  M534.088928,712.273926   C532.263733,713.698730 529.680603,714.793396 528.867859,716.659241   C528.281677,718.004883 529.503052,721.081116 530.878723,722.153809   C534.415405,724.911987 538.429871,724.020569 542.095947,721.908997   C545.667786,719.851624 545.557739,716.719543 544.454285,713.057678   C541.183289,712.770447 538.053101,712.495605 534.088928,712.273926  z" data-index="16" style="opacity: 1;"/>
<path fill="#C73135" opacity="1.000000" stroke="none" d=" M700.617920,731.969849   C692.894958,729.916626 689.867310,724.556946 689.091125,717.568909   C688.798462,714.933594 688.895020,712.250549 688.886230,709.589111   C688.862732,702.446289 688.878235,695.303284 688.878235,687.789185   C692.889832,687.789185 696.609253,687.789185 701.052917,687.789185   C701.052917,692.214417 701.037903,696.623169 701.057434,701.031860   C701.075073,705.025146 700.972351,709.027710 701.207336,713.009338   C701.533875,718.540405 704.330750,721.188721 709.299011,721.056274   C714.246399,720.924438 717.888184,717.626892 717.990967,712.668701   C718.159607,704.533875 718.036621,696.392944 718.036621,687.925232   C722.249084,687.925232 725.998047,687.925232 730.184753,687.925232   C730.184753,702.186768 730.184753,716.392090 730.184753,730.884888   C726.548523,730.884888 723.108276,730.884888 719.247009,730.884888   C718.891541,729.737549 718.472778,728.385986 717.752258,726.060425   C712.982544,730.898743 707.496582,733.130493 700.617920,731.969849  z" data-index="17" style="opacity: 1;"/>
<path fill="#143466" opacity="1.000000" stroke="none" d=" M244.536179,729.692810   C234.605789,733.971863 225.411209,733.287598 217.711365,726.090332   C210.552628,719.398926 209.621048,710.672363 212.470642,701.616150   C215.321182,692.556946 223.186401,687.058716 232.882767,686.876038   C243.472656,686.676514 251.121399,691.490417 254.528687,700.499390   C258.228577,710.281982 255.843872,721.009766 248.581085,726.999329   C247.432632,727.946411 246.109100,728.681091 244.536179,729.692810  M239.974625,699.468445   C234.407516,696.347839 229.408264,696.883423 226.171234,700.947205   C222.910919,705.040283 222.493301,713.040222 225.366638,717.431274   C227.567352,720.794373 230.749405,722.297119 234.720505,721.866760   C238.709869,721.434326 241.533966,719.234741 242.819168,715.454407   C244.685898,709.963623 244.387222,704.682434 239.974625,699.468445  z" data-index="18" style="opacity: 1;"/>
<path fill="#C73135" opacity="1.000000" stroke="none" d=" M776.144287,721.264160   C780.160400,721.608337 783.784607,722.051819 787.388184,721.922241   C788.551819,721.880432 789.661255,720.332397 790.795410,719.473328   C789.829590,718.274902 789.086365,716.416138 787.856323,716.001343   C784.098450,714.734314 780.138489,714.079712 776.283997,713.083191   C768.897888,711.173462 765.211670,707.052734 765.254944,700.883667   C765.303528,693.969299 769.567627,688.682373 776.901245,687.375977   C785.453308,685.852417 793.692932,686.992859 801.583923,691.717712   C800.355896,694.684631 799.238831,697.383301 798.387634,699.439697   C792.622803,698.489807 787.483337,697.344788 782.287964,696.964294   C780.677979,696.846497 778.915833,698.806091 777.223389,699.814453   C778.660278,700.935181 779.936707,702.553345 781.565674,703.078918   C785.664856,704.401550 790.002380,704.986694 794.098572,706.316650   C799.915833,708.205322 802.727478,711.927673 802.886230,717.114868   C803.066650,723.013184 800.094116,727.771851 794.706848,730.209045   C786.080444,734.111572 772.474854,732.396973 764.061584,726.150085   C765.170227,723.560547 766.315308,720.885864 767.497253,718.125122   C770.477051,719.214783 773.110657,720.177917 776.144287,721.264160  z" data-index="19" style="opacity: 1;"/>
<path fill="#143162" opacity="1.000000" stroke="none" d=" M420.343384,298.664185   C420.821655,310.138031 421.046783,321.453522 421.062531,332.769318   C421.133728,383.904449 421.145721,435.039703 421.216125,486.651733   C406.793365,494.466339 392.333527,501.804077 377.519348,509.217529   C383.044525,505.534149 388.742798,501.443481 394.851135,498.102631   C401.932343,494.229706 409.465057,491.184143 416.564514,487.341095   C417.684387,486.734955 417.938385,483.816376 417.941925,481.965698   C418.017365,442.641052 417.999786,403.316193 417.999939,363.991394   C418.000000,344.662262 417.999207,325.333099 417.998840,306.003967   C417.998779,304.224060 417.998810,302.444183 417.998810,300.252533   C416.066895,300.798248 414.752808,301.169434 413.231384,301.300049   C415.347290,300.208313 417.670563,299.357147 420.343384,298.664185  z" data-index="20"/>
<path fill="#143162" opacity="1.000000" stroke="none" d=" M324.968048,721.945190   C324.966370,710.502625 324.966370,699.550110 324.966370,688.226318   C328.980042,688.226318 332.683044,688.226318 336.664154,688.226318   C336.664154,702.454285 336.664154,716.668396 336.664154,731.115112   C332.809814,731.115112 329.045807,731.115112 324.969727,731.115112   C324.969727,728.058960 324.969727,725.247131 324.968048,721.945190  z" data-index="21" style="opacity: 1;"/>
<path fill="#282F3C" opacity="1.000000" stroke="none" d=" M696.937805,445.693298   C696.937805,445.693298 696.935974,445.363525 697.214844,444.907166   C699.995056,444.183807 702.496460,443.916779 706.337219,443.506805   C701.644409,443.034943 698.310547,442.699738 694.976624,442.364502   C725.294189,442.231354 755.611755,442.046021 785.929138,442.072510   C788.147278,442.074463 790.364136,443.608948 792.734253,443.670105   C762.756714,443.573059 732.727051,445.667969 702.395264,449.612183   C701.281799,448.483795 700.630127,447.720734 700.010681,446.750793   C700.042969,446.543945 700.115173,446.130463 700.532593,446.091980   C702.946777,446.053528 704.943420,446.053528 706.940125,446.053528   C706.896179,445.594635 706.852234,445.135712 706.808350,444.676819   C704.541748,445.109680 702.275085,445.542542 699.621765,445.972839   C698.469299,445.877960 697.703552,445.785645 696.937805,445.693298  z" data-index="22"/>
<path fill="#C73135" opacity="1.000000" stroke="none" d=" M759.923706,730.140381   C757.574280,730.976807 755.568726,731.944519 753.477783,732.192566   C744.987915,733.199890 740.458984,729.370117 740.187378,720.827576   C739.965576,713.851501 740.114624,706.863525 740.110107,699.880798   C740.104065,690.614929 740.108521,681.349060 740.108521,671.826782   C744.357971,671.826782 748.091614,671.826782 752.556885,671.826782   C752.556885,684.004944 752.553223,695.935303 752.560242,707.865601   C752.561523,710.026794 752.574890,712.188965 752.637085,714.349060   C752.823853,720.841370 753.159973,721.131775 760.228271,720.456116   C760.228271,723.653259 760.228271,726.796997 759.923706,730.140381  M742.010071,703.499756   C742.009949,708.664246 741.995117,713.828857 742.013000,718.993286   C742.043945,727.943604 744.754456,730.589966 753.729919,729.889038   C755.424866,729.756653 757.011841,728.241211 758.648621,727.363953   C757.519104,725.775696 756.727173,723.558716 755.188538,722.732483   C752.148743,721.100342 750.769958,719.122131 750.933838,715.634521   C751.160278,710.813965 751.113281,705.970520 750.958069,701.144104   C750.671814,692.244507 750.221558,683.350098 749.845459,674.588318   C742.473145,673.454956 742.025146,673.823242 742.016479,680.509094   C742.006958,687.839355 742.011414,695.169617 742.010071,703.499756  z" data-index="23"/>
<path fill="#143162" opacity="1.000000" stroke="none" d=" M301.978149,710.473083   C302.380890,713.572632 302.642334,717.137207 303.020355,720.689453   C303.263336,722.972778 303.321045,725.381897 304.157196,727.454041   C304.616211,728.591492 306.595764,729.897827 307.748108,729.776978   C309.220551,729.622620 311.252197,728.396057 311.785034,727.110352   C312.701416,724.899231 312.981110,722.279480 312.941071,719.840820   C312.723602,706.598938 312.434204,693.355225 311.834839,680.127258   C311.770447,678.706238 309.789673,676.754211 308.263672,676.155884   C305.696777,675.149292 303.557953,676.582886 303.429016,679.421814   C303.197601,684.517517 303.363739,689.631409 303.363739,694.737671   C302.916931,694.744080 302.470154,694.750488 302.023346,694.756897   C302.023346,688.831116 302.023346,682.905273 302.018524,676.515137   C302.663696,675.394897 303.279602,674.217773 303.969513,674.172729   C307.098633,673.968323 310.248627,674.083191 313.749939,674.083191   C313.749939,693.165649 313.749939,712.055786 313.749939,731.212769   C310.027740,731.212769 306.260010,731.212769 301.886261,731.212769   C301.886261,724.429321 301.886261,717.681091 301.978149,710.473083  z" data-index="24"/>
<path fill="#143162" opacity="1.000000" stroke="none" d=" M324.950165,673.104553   C327.227936,669.366821 330.571533,668.720398 333.741302,670.229980   C335.417053,671.028015 336.904205,673.562561 337.254517,675.530640   C338.039246,679.939392 335.546661,682.627563 331.308289,682.853699   C326.745544,683.097107 324.269409,680.650269 324.346558,675.891052   C324.359711,675.078979 324.658203,674.271545 324.950165,673.104553  z" data-index="25" style="opacity: 1;"/>
<path fill="#CB222B" opacity="1.000000" stroke="none" d=" M566.337769,581.913696   C565.898315,557.222412 565.808105,532.605957 565.619446,507.545898   C565.773926,506.761292 566.026794,506.420288 566.590820,506.003876   C567.268494,507.807007 567.947144,509.684479 567.953796,511.564301   C568.028809,532.703064 567.962769,553.842468 568.067444,574.981018   C568.076355,576.790161 569.035767,578.594604 569.786987,580.717285   C568.909241,581.351746 567.798157,581.670166 566.337769,581.913696  z" data-index="26" style="opacity: 1;"/>
<path fill="#143162" opacity="1.000000" stroke="none" d=" M269.652283,429.111786   C265.217896,430.785095 261.979797,437.171936 255.203400,433.517090   C253.639771,432.673706 249.429443,433.908234 248.451187,435.457916   C246.904007,437.908936 248.491867,440.303070 251.413132,442.181183   C255.285767,444.670959 258.459045,448.248444 261.957428,451.709015   C257.354248,448.644379 252.215485,445.717957 248.299118,441.622498   C246.107895,439.331177 245.943802,435.101318 245.079132,432.407928   C247.964737,431.438049 250.181137,430.523712 252.486237,429.999603   C253.442337,429.782196 254.902512,430.056671 255.595947,430.693054   C259.681244,434.442383 262.338196,433.560822 263.513214,428.211334   C265.732941,428.565216 267.498260,428.846649 269.652283,429.111786  z" data-index="27"/>
<path fill="#143162" opacity="1.000000" stroke="none" d=" M406.874146,296.687592   C401.808197,293.943756 396.820465,291.946991 393.966736,299.811493   C386.837952,300.308228 384.277344,306.581421 380.016174,310.737640   C379.051453,311.678650 377.533875,312.052887 375.917328,312.528625   C378.481201,308.398865 381.296112,304.346100 384.381287,300.510773   C385.253082,299.427032 387.010498,298.221832 388.198547,298.371094   C393.261993,299.007294 396.041840,297.201599 396.541321,292.029083   C396.613190,291.285156 397.137115,290.584869 397.861023,288.927673   C401.095001,291.649536 403.910522,294.019226 406.874146,296.687592  z" data-index="28"/>
<path fill="#143162" opacity="1.000000" stroke="none" d=" M298.644531,513.888672   C301.549744,512.924988 300.858521,514.652344 300.371185,516.395630   C298.920441,521.585388 300.287933,525.490601 305.784790,527.808533   C301.176941,526.597351 296.299286,525.314270 291.692535,523.384521   C290.757568,522.992859 290.376862,520.085510 290.637939,518.484192   C290.791321,517.543518 292.642487,516.745605 293.859283,516.145813   C295.430542,515.371277 297.130981,514.858826 298.644531,513.888672  z" data-index="29"/>
<path fill="#F4F8FB" opacity="1.000000" stroke="none" d=" M646.418579,458.053223   C644.762207,458.821960 642.720520,459.633026 640.634827,460.307831   C626.664062,464.828125 612.683960,469.319366 598.338562,473.831116   C597.450806,473.564026 596.931274,473.285919 596.107849,472.964783   C612.540283,467.958710 629.276611,462.995636 646.418579,458.053223  z" data-index="30" style="opacity: 1;"/>
<path fill="#F4F8FB" opacity="1.000000" stroke="none" d=" M558.888550,463.708466   C573.073364,460.342072 587.288940,457.355896 601.517212,454.431366   C601.924133,454.347748 602.465637,454.919037 602.876953,455.549927   C588.468140,458.918121 574.126892,461.921356 559.387939,464.899750   C558.967224,464.615723 558.944153,464.356567 558.888550,463.708466  z" data-index="31"/>
<path fill="#143162" opacity="1.000000" stroke="none" d=" M301.034760,411.636719   C300.743774,420.349182 294.794586,425.528168 286.817535,424.143463   C282.177368,423.338013 278.060120,424.602325 274.247742,427.238312   C273.201752,427.961517 271.977631,428.427155 270.467804,429.027771   C271.619965,424.109222 275.764252,422.286835 280.129761,422.074432   C284.482819,421.862640 288.903900,423.049164 293.225616,423.613525   C295.715210,419.689911 298.227478,415.730560 301.034760,411.636719  z" data-index="32"/>
<path fill="#143162" opacity="1.000000" stroke="none" d=" M338.638977,346.031677   C337.521240,349.876678 336.108398,353.809052 334.565979,357.689911   C334.222260,358.554810 333.583191,359.588837 332.805359,359.944946   C329.483643,361.465698 327.646088,363.619354 327.747833,367.559570   C327.776001,368.649658 325.757477,369.792664 324.304504,370.936707   C324.549316,368.931915 324.960144,366.805481 325.845062,364.899139   C326.707336,363.041748 327.670868,360.637207 329.270416,359.842285   C332.411377,358.281433 333.145721,355.906738 334.007660,352.895172   C334.715027,350.423523 336.814606,348.350281 338.638977,346.031677  z" data-index="33"/>
<path fill="#143162" opacity="1.000000" stroke="none" d=" M315.625458,384.036011   C316.488434,389.863373 314.227142,394.244263 309.138641,397.661194   C305.799194,399.903625 302.384369,402.718262 304.646088,407.936981   C304.978882,408.704834 303.161774,410.404388 301.972321,411.507080   C302.025421,409.224274 302.894958,407.079468 302.765778,404.996552   C302.543640,401.414337 303.801880,398.848419 306.749664,397.073975   C311.659088,394.118652 314.774963,390.031464 315.625458,384.036011  z" data-index="34"/>
<path fill="#143162" opacity="1.000000" stroke="none" d=" M346.372986,528.984558   C350.301270,525.427429 354.434479,521.618042 358.908203,518.262756   C360.623108,516.976501 363.115509,516.727051 365.648010,516.015381   C359.599457,520.321533 353.156586,524.617493 346.372986,528.984558  z" data-index="35"/>
<path fill="#143162" opacity="1.000000" stroke="none" d=" M362.660278,316.921356   C357.628448,317.672516 355.460449,322.239807 352.268707,325.503998   C350.923798,326.879425 349.563812,328.240112 347.855164,329.540985   C348.507538,323.267242 354.631317,320.909607 357.693787,316.213654   C358.082214,315.618011 360.754608,316.511810 362.660278,316.921356  z" data-index="36"/>
<path fill="#143162" opacity="1.000000" stroke="none" d=" M264.044342,455.346985   C267.959534,456.447113 269.881927,458.699524 269.255127,463.467987   C268.712158,467.598938 269.680695,471.928558 269.960938,476.632416   C269.061005,476.396759 267.333160,475.241547 267.426392,475.068695   C269.429932,471.354736 266.409607,467.520935 267.196289,464.521729   C268.338928,460.165558 266.498322,458.136627 264.044342,455.346985  z" data-index="37"/>
<path fill="#E8CC5D" opacity="1.000000" stroke="none" d=" M676.949707,444.136841   C676.410645,444.754913 675.651428,445.626404 674.807068,445.718842   C668.100220,446.452850 661.377319,447.038879 654.785706,447.315918   C656.837097,446.710541 658.784058,446.567169 660.680725,446.178070   C662.539062,445.796783 664.346069,445.165436 666.175659,444.643860   C669.680481,444.438995 673.185242,444.234131 676.949707,444.136841  z" data-index="38"/>
<path fill="#143162" opacity="1.000000" stroke="none" d=" M323.981384,534.450684   C325.493103,535.926941 327.092316,537.789978 328.886780,539.880615   C331.063354,538.289856 333.261200,536.683655 335.817932,535.068787   C333.580383,538.173462 330.983948,541.286743 327.378937,545.609436   C326.025055,541.203552 325.046936,538.020508 323.981384,534.450684  z" data-index="39"/>
<path fill="#143162" opacity="1.000000" stroke="none" d=" M305.991913,528.432129   C310.393402,531.158264 315.043182,533.189514 320.709290,531.212646   C321.435791,530.959167 322.817413,532.583252 323.917664,533.719727   C319.482941,533.733765 314.955780,533.711060 310.604279,532.825195   C308.895599,532.477295 307.580170,530.197876 305.991913,528.432129  z" data-index="40"/>
<path fill="#143162" opacity="1.000000" stroke="none" d=" M279.820312,486.676514   C285.812469,487.694458 292.274841,488.305634 296.919617,493.794128   C291.300659,491.754272 285.654724,489.357208 279.820312,486.676514  z" data-index="41"/>
<path fill="#143466" opacity="1.000000" stroke="none" d=" M694.539368,442.289490   C698.310547,442.699738 701.644409,443.034943 706.337219,443.506805   C702.496460,443.916779 699.995056,444.183807 697.210022,444.742371   C693.014221,444.722839 689.102173,444.411743 684.774963,444.088806   C687.607300,443.456116 690.854675,442.835327 694.539368,442.289490  z" data-index="42"/>
<path fill="#143162" opacity="1.000000" stroke="none" d=" M347.157959,329.649597   C347.494965,329.656128 347.603210,329.903717 347.539215,329.961884   C343.537659,333.600220 342.695648,338.448120 341.947266,343.637939   C341.646759,342.345490 342.178497,340.747131 341.745667,339.477631   C339.983856,334.310425 342.396118,331.571930 347.157959,329.649597  z" data-index="43"/>
<path fill="#143162" opacity="1.000000" stroke="none" d=" M295.650269,502.104095   C294.803802,506.067719 294.266754,510.011261 298.549438,513.152222   C296.108002,511.715668 293.714203,509.903778 291.314117,508.087158   C293.013336,505.605835 294.166138,503.922455 295.650269,502.104095  z" data-index="44"/>
<path fill="#143162" opacity="1.000000" stroke="none" d=" M375.089722,312.670593   C374.294098,313.509979 373.349060,314.975616 372.051239,315.427124   C369.707886,316.242371 367.153625,316.451416 364.311676,316.944031   C365.658691,313.839752 367.703735,311.735474 371.695221,313.761017   C372.389343,314.113251 373.736023,313.179504 375.089722,312.670593  z" data-index="45"/>
<path fill="#282F3C" opacity="1.000000" stroke="none" d=" M665.824524,444.349976   C664.346069,445.165436 662.539062,445.796783 660.680725,446.178070   C658.784058,446.567169 656.837097,446.710541 654.520630,447.056335   C653.457092,446.711304 652.785034,446.271393 652.053040,445.516113   C656.486572,444.819183 660.979980,444.437653 665.824524,444.349976  z" data-index="46"/>
<path fill="#143162" opacity="1.000000" stroke="none" d=" M366.368103,515.977173   C369.085052,514.022461 372.149078,512.006409 375.598724,509.990845   C372.894623,511.966156 369.804901,513.940979 366.368103,515.977173  z" data-index="47"/>
<path fill="#F7CE30" opacity="1.000000" stroke="none" d=" M565.308105,445.373993   C565.140076,440.233521 565.117920,435.097504 565.235107,429.616455   C565.505737,434.260864 565.636963,439.250214 565.726318,444.719269   C565.684387,445.198944 565.454041,445.378418 565.308105,445.373993  z" data-index="48"/>
<path fill="#282F3C" opacity="1.000000" stroke="none" d=" M687.340515,451.478821   C688.298157,446.953583 690.778748,450.860077 692.829285,450.817078   C691.227722,451.262146 689.415100,451.423615 687.340515,451.478821  z" data-index="49"/>
<path fill="#212936" opacity="1.000000" stroke="none" d=" M699.978394,446.957672   C700.630127,447.720734 701.281799,448.483795 701.964233,449.560242   C701.262390,450.003052 700.529724,450.132446 699.249023,449.924133   C697.783813,449.021545 696.866760,448.456665 696.202393,447.644714   C697.629578,447.250977 698.803955,447.104309 699.978394,446.957672  z" data-index="50"/>
<path fill="#143162" opacity="1.000000" stroke="none" d=" M321.328979,373.776428   C320.932281,375.918457 320.254242,378.216339 319.308960,380.750305   C319.710358,378.635071 320.378998,376.283661 321.328979,373.776428  z" data-index="51"/>
<path fill="#143162" opacity="1.000000" stroke="none" d=" M340.250488,530.745239   C341.693359,530.150696 343.472229,529.580200 345.655334,529.023743   C344.235168,529.614929 342.410797,530.192139 340.250488,530.745239  z" data-index="52"/>
<path fill="#143162" opacity="1.000000" stroke="none" d=" M411.900269,300.696899   C410.404724,299.882782 408.739258,298.789276 407.043030,297.337097   C408.584961,298.124786 410.157654,299.271149 411.900269,300.696899  z" data-index="53"/>
<path fill="#282F3C" opacity="1.000000" stroke="none" d=" M695.949707,447.891815   C696.866760,448.456665 697.783813,449.021545 698.879761,449.868408   C697.941101,450.441620 696.823425,450.732819 695.351074,450.966034   C694.992065,450.173340 694.987854,449.438599 695.226074,448.322449   C695.468506,447.941071 695.949707,447.891815 695.949707,447.891815  z" data-index="54"/>
<path fill="#143162" opacity="1.000000" stroke="none" d=" M297.412903,495.344269   C297.723480,496.515717 298.107452,498.040100 298.208496,499.771667   C297.779175,498.551636 297.632751,497.124420 297.412903,495.344269  z" data-index="55"/>
<path fill="#143162" opacity="1.000000" stroke="none" d=" M275.019165,482.327576   C275.924652,482.783691 276.929596,483.542542 277.968750,484.646240   C277.041504,484.204132 276.080048,483.417206 275.019165,482.327576  z" data-index="56"/>
<path fill="#143162" opacity="1.000000" stroke="none" d=" M297.706604,500.078247   C297.511871,500.586700 297.069458,501.249023 296.296967,501.946014   C296.464233,501.397827 296.961578,500.814972 297.706604,500.078247  z" data-index="57"/>
<path fill="#E8CC5D" opacity="1.000000" stroke="none" d=" M567.162964,445.509766   C567.370789,445.242798 567.731934,445.109009 568.373169,445.046814   C568.207520,445.293274 567.761902,445.468109 567.162964,445.509766  z" data-index="58"/>
<path fill="#143162" opacity="1.000000" stroke="none" d=" M340.499268,344.733643   C340.387024,345.078979 339.993042,345.505341 339.278809,345.954102   C339.378204,345.589233 339.797882,345.201935 340.499268,344.733643  z" data-index="59"/>
<path fill="#143162" opacity="1.000000" stroke="none" d=" M278.138245,485.249878   C278.551086,485.261047 279.091827,485.526062 279.653259,486.110138   C279.204681,486.120728 278.735413,485.812225 278.138245,485.249878  z" data-index="60"/>
<path fill="#143162" opacity="1.000000" stroke="none" d=" M338.405579,532.439087   C338.439514,532.075745 338.727814,531.581909 339.303955,530.984009   C339.281128,531.356201 338.970520,531.832397 338.405579,532.439087  z" data-index="61"/>
<path fill="#143162" opacity="1.000000" stroke="none" d=" M272.669617,479.614166   C273.021332,479.687347 273.477661,480.024689 273.968597,480.681702   C273.593536,480.627014 273.183868,480.252686 272.669617,479.614166  z" data-index="62"/>
<path fill="#143162" opacity="1.000000" stroke="none" d=" M262.947632,453.320831   C263.257233,453.484100 263.606781,453.942291 263.975159,454.706360   C263.658539,454.546753 263.323059,454.081268 262.947632,453.320831  z" data-index="63"/>
<path fill="#143162" opacity="1.000000" stroke="none" d=" M323.699738,371.058960   C323.701569,371.488739 323.447906,372.051422 322.864716,372.629944   C322.838226,372.161194 323.141235,371.676575 323.699738,371.058960  z" data-index="64"/>
<path fill="#143162" opacity="1.000000" stroke="none" d=" M270.038239,477.320312   C270.470245,477.311188 271.038239,477.556061 271.625122,478.131165   C271.154053,478.165741 270.664124,477.870026 270.038239,477.320312  z" data-index="65"/>
<path fill="#143162" opacity="1.000000" stroke="none" d=" M318.564606,381.562012   C318.466187,381.927582 318.083923,382.419800 317.366394,382.962830   C317.447632,382.571960 317.864197,382.130341 318.564606,381.562012  z" data-index="66"/>

<path fill="#143162" opacity="1.000000" stroke="none" d=" M341.443909,343.739929   C341.545776,343.976440 341.396423,344.317108 340.957092,344.714600   C340.842316,344.462311 341.017517,344.153198 341.443909,343.739929  z" data-index="67"/>
<path fill="#143162" opacity="1.000000" stroke="none" d=" M376.267944,509.964722   C376.242035,509.739166 376.489838,509.492310 377.006531,509.219238   C377.030853,509.443146 376.786255,509.693237 376.267944,509.964722  z" data-index="68"/>
<path fill="#143162" opacity="1.000000" stroke="none" d=" M271.689545,478.635315   C271.930206,478.537140 272.273621,478.674713 272.629578,479.113007   C272.358856,479.232849 272.075562,479.051941 271.689545,478.635315  z" data-index="69"/>
<path fill="#F4F8FB" opacity="1.000000" stroke="none" d=" M432.314545,559.319580   C435.721893,555.218872 439.261444,551.635132 442.008301,547.522034   C445.749146,541.920532 450.509949,540.954529 456.185608,542.866638   C450.869293,551.287048 445.569946,559.779724 440.115082,568.171326   C439.550537,569.039795 438.061340,569.766174 436.999298,569.768738   C433.397217,569.777466 429.794281,569.431458 425.274353,569.167419   C427.795898,565.629822 429.944672,562.615173 432.314545,559.319580  z" data-index="70"/>
<path fill="#F4F8FB" opacity="1.000000" stroke="none" d=" M491.560638,511.527344   C488.184662,514.009399 484.782654,515.954590 482.081421,518.612061   C478.506989,522.128662 474.728729,522.581055 469.453430,520.665283   C478.388062,514.734253 486.764526,508.963196 495.413696,503.634705   C496.896271,502.721283 499.541901,503.695618 502.987122,503.862762   C498.549255,506.828369 495.197876,509.067902 491.560638,511.527344  z" data-index="71" style="opacity: 1;"/>
<path fill="#F4F8FB" opacity="1.000000" stroke="none" d=" M550.856812,477.200348   C552.139893,477.565491 553.044617,477.913269 553.949341,478.261017   C543.324341,480.586090 535.053223,489.438751 523.909668,489.822571   C523.705994,489.268311 523.502319,488.714050 523.298645,488.159821   C532.358582,484.500854 541.418457,480.841888 550.856812,477.200348  z" data-index="72"/>
<path fill="#F4F8FB" opacity="1.000000" stroke="none" d=" M585.511230,468.174377   C583.603943,468.269836 582.072754,468.269836 580.541626,468.269836   C580.503784,467.869171 580.465942,467.468475 580.428162,467.067810   C589.563660,464.782166 598.699219,462.496521 607.834778,460.210907   C607.949280,460.674072 608.063843,461.137268 608.178345,461.600433   C600.748047,463.759918 593.317688,465.919403 585.511230,468.174377  z" data-index="73"/>
<path fill="#F4F8FB" opacity="1.000000" stroke="none" d=" M611.448975,453.916595   C614.534180,452.930847 617.985291,451.611145 621.556763,451.026886   C629.053772,449.800446 636.614014,448.960480 644.590515,447.976654   C638.197021,449.291351 631.369141,450.634583 624.522583,451.875092   C620.319641,452.636566 616.088135,453.240906 611.448975,453.916595  z" data-index="74"/>
<path fill="#143466" opacity="1.000000" stroke="none" d=" M696.202393,447.644714   C695.949707,447.891815 695.468506,447.941071 695.226929,447.955078   C693.224731,447.969116 691.464050,447.969116 689.703430,447.969116   C689.656616,447.484192 689.609802,446.999298 689.562988,446.514374   C691.739136,446.297729 693.915344,446.081055 696.514648,445.778870   C697.703552,445.785645 698.469299,445.877960 699.645386,446.013733   C700.055664,446.057190 700.115173,446.130463 700.115173,446.130463   C700.115173,446.130463 700.042969,446.543945 700.010681,446.750793   C698.803955,447.104309 697.629578,447.250977 696.202393,447.644714  z" data-index="75"/>
<path fill="#F7CE30" opacity="1.000000" stroke="none" d=" M565.536011,330.331604   C565.326355,317.123627 565.255493,303.488739 565.386169,289.524353   C565.616699,302.764801 565.645691,316.334747 565.536011,330.331604  z" data-index="76"/>
<path fill="#F7CE30" opacity="1.000000" stroke="none" d=" M565.501343,357.392212   C565.281616,356.421234 565.204529,355.094482 565.247375,353.511688   C565.459534,354.515900 565.551697,355.776154 565.501343,357.392212  z" data-index="77"/>
<path fill="#F7CE30" opacity="1.000000" stroke="none" d=" M565.496582,408.417145   C565.281006,407.737427 565.208252,406.725616 565.246582,405.485840   C565.451599,406.200256 565.545471,407.142639 565.496582,408.417145  z" data-index="78"/>
<path fill="#F7CE30" opacity="1.000000" stroke="none" d=" M565.477356,414.538879   C565.291870,414.362549 565.237122,413.934113 565.264893,413.360687   C565.434326,413.572723 565.521179,413.929749 565.477356,414.538879  z" data-index="79"/>

<path fill="#F4F8FB" opacity="1.000000" stroke="none" d=" M171.048615,694.980469   C171.049561,691.536072 171.049561,688.577393 171.049561,685.038452   C176.161835,685.038452 180.921844,684.820190 185.651886,685.103088   C189.932877,685.359131 192.598068,688.881592 192.820587,693.812195   C193.066376,699.257874 190.623672,703.042542 185.717834,703.548767   C181.137772,704.021301 176.470612,703.649719 171.047684,703.649719   C171.047684,700.943115 171.047684,698.204651 171.048615,694.980469  z" data-index="81" style="opacity: 1; visibility: hidden;"/>
<path fill="#FAD02A" opacity="1.000000" stroke="none" d=" M423.949036,317.171631   C423.628876,312.732910 423.066620,308.773834 423.057861,304.813538   C423.049500,301.028595 425.315308,299.729218 428.136597,302.218262   C432.033051,305.655884 436.267365,306.277191 441.069336,306.033447   C442.464478,305.962646 444.245789,306.361877 445.260681,307.232605   C448.781067,310.252960 452.238434,310.001343 456.343994,308.429779   C463.471130,305.701599 469.388153,307.711304 474.304474,313.884155   C474.715851,314.400696 474.949127,315.062225 475.373901,315.564453   C482.429291,323.906189 488.192810,329.146881 498.148499,317.251343   C502.070465,312.565155 506.722809,311.132935 512.882874,310.680634   C523.853943,309.875092 534.801941,307.826050 545.537292,305.337952   C548.519287,304.646820 552.216553,300.954498 552.962646,297.980865   C554.475952,291.950348 558.990173,291.822357 564.034912,290.035828   C564.034912,292.267914 564.035217,294.003998 564.034729,295.740082   C564.028809,319.730560 564.021729,343.721069 564.017090,367.711548   C564.013916,384.132538 564.115784,400.554443 563.969543,416.974121   C563.898621,424.933319 563.527527,432.901428 562.888916,440.833008   C562.777222,442.219482 560.849915,444.289795 559.438721,444.606323   C550.569519,446.595642 541.564453,447.976807 532.689514,449.943634   C520.253174,452.699799 507.725128,455.234711 495.536255,458.869904   C476.968384,464.407654 458.608002,470.662170 440.267120,476.927307   C434.717072,478.823181 429.523132,481.761444 423.948853,484.322021   C423.948853,428.300293 423.948853,372.975525 423.949036,317.171631  z" data-index="82"/>

<path fill="#F4F8FB" opacity="1.000000" stroke="none" d=" M826.190491,697.001770   C833.807373,695.674072 837.052063,697.940674 838.266846,705.450684   C832.088562,705.450684 825.971741,705.450684 819.367737,705.450684   C820.283508,701.307556 822.036560,698.444763 826.190491,697.001770  z" data-index="84" style="opacity: 1; visibility: hidden;"/>

<path fill="#F4F8FB" opacity="1.000000" stroke="none" d=" M240.259491,699.723145   C244.387222,704.682434 244.685898,709.963623 242.819168,715.454407   C241.533966,719.234741 238.709869,721.434326 234.720505,721.866760   C230.749405,722.297119 227.567352,720.794373 225.366638,717.431274   C222.493301,713.040222 222.910919,705.040283 226.171234,700.947205   C229.408264,696.883423 234.407516,696.347839 240.259491,699.723145  z" data-index="86" style="opacity: 1; visibility: hidden;"/>
<path fill="#143466" opacity="1.000000" stroke="none" d=" M700.032104,446.016296   C702.275085,445.542542 704.541748,445.109680 706.808350,444.676819   C706.852234,445.135712 706.896179,445.594635 706.940125,446.053528   C704.943420,446.053528 702.946777,446.053528 700.532593,446.091980   C700.115173,446.130463 700.055664,446.057190 700.032104,446.016296  z" data-index="87"/>
<path fill="#CC222D" opacity="1.000000" stroke="none" d=" M742.009888,702.999817   C742.011414,695.169617 742.006958,687.839355 742.016479,680.509094   C742.025146,673.823242 742.473145,673.454956 749.845459,674.588318   C750.221558,683.350098 750.671814,692.244507 750.958069,701.144104   C751.113281,705.970520 751.160278,710.813965 750.933838,715.634521   C750.769958,719.122131 752.148743,721.100342 755.188538,722.732483   C756.727173,723.558716 757.519104,725.775696 758.648621,727.363953   C757.011841,728.241211 755.424866,729.756653 753.729919,729.889038   C744.754456,730.589966 742.043945,727.943604 742.013000,718.993286   C741.995117,713.828857 742.009949,708.664246 742.009888,702.999817  z" data-index="88" style="opacity: 1;"/>
</svg>